<svg id="svg1" width="336" height="74" viewBox="0 0 336 74" fill="none" xmlns="http://www.w3.org/2000/svg">

<path d="M40.2969 71H31.625V44.2812C31.625 41.375 31.5156 39.0312 31.2969 37.25C31.0781 35.4375 30.7031 34.0312 30.1719 33.0312C29.6719 32 28.9844 31.3125 28.1094 30.9688C27.2344 30.625 26.1406 30.4531 24.8281 30.4531C23.6719 30.4531 22.5156 30.6875 21.3594 31.1562C20.2031 31.625 19.0938 32.2969 18.0312 33.1719C17 34.0156 16.0312 35.0312 15.125 36.2188C14.25 37.375 13.5 38.6562 12.875 40.0625V71H4.20312V42.1719C4.20312 37.5469 3.9375 33.6406 3.40625 30.4531C2.875 27.2344 2.35938 24.8125 1.85938 23.1875H10.2969C10.6406 24.1875 10.9375 25.375 11.1875 26.75C11.4375 28.0938 11.6406 29.3281 11.7969 30.4531C13.2344 28.7969 14.6094 27.4375 15.9219 26.375C17.2344 25.3125 18.5312 24.4844 19.8125 23.8906C21.125 23.2656 22.4219 22.8438 23.7031 22.625C24.9844 22.375 26.2969 22.25 27.6406 22.25C29.1719 22.25 30.5625 22.4688 31.8125 22.9062C33.0625 23.3438 34.1562 23.9219 35.0938 24.6406C36.0625 25.3594 36.8906 26.2031 37.5781 27.1719C38.2656 28.1094 38.7969 29.0938 39.1719 30.125C40.6406 28.5312 42.0625 27.2344 43.4375 26.2344C44.8125 25.2031 46.1562 24.4062 47.4688 23.8438C48.7812 23.25 50.0625 22.8438 51.3125 22.625C52.5938 22.375 53.8438 22.25 55.0625 22.25C57.4375 22.25 59.4375 22.6406 61.0625 23.4219C62.6875 24.1719 63.9844 25.2969 64.9531 26.7969C65.9531 28.2969 66.6562 30.1562 67.0625 32.375C67.5 34.5938 67.7188 37.1562 67.7188 40.0625V71H59.0469V45.2188C59.0469 42.1875 58.9375 39.7188 58.7188 37.8125C58.5 35.9062 58.125 34.4062 57.5938 33.3125C57.0938 32.2188 56.4062 31.4688 55.5312 31.0625C54.6562 30.6562 53.5625 30.4531 52.25 30.4531C51.0938 30.4531 49.9531 30.6875 48.8281 31.1562C47.7031 31.5938 46.6094 32.2344 45.5469 33.0781C44.5156 33.8906 43.5469 34.8906 42.6406 36.0781C41.7656 37.2656 40.9844 38.5938 40.2969 40.0625V71ZM87.9062 47.3281C87.9062 50.0469 88.2344 52.4844 88.8906 54.6406C89.5469 56.7969 90.4688 58.625 91.6562 60.125C92.875 61.5938 94.3125 62.7188 95.9688 63.5C97.625 64.2812 99.4688 64.6719 101.5 64.6719C103.375 64.6719 105.141 64.2812 106.797 63.5C108.453 62.7188 109.891 61.5938 111.109 60.125C112.359 58.625 113.328 56.7969 114.016 54.6406C114.734 52.4844 115.094 50.0469 115.094 47.3281C115.094 44.5781 114.766 42.125 114.109 39.9688C113.453 37.7812 112.516 35.9375 111.297 34.4375C110.109 32.9062 108.672 31.75 106.984 30.9688C105.328 30.1562 103.5 29.75 101.5 29.75C99.5938 29.75 97.8125 30.1562 96.1562 30.9688C94.5 31.75 93.0625 32.9062 91.8438 34.4375C90.625 35.9375 89.6562 37.7812 88.9375 39.9688C88.25 42.125 87.9062 44.5781 87.9062 47.3281ZM79.2344 47.3281C79.2344 43.2969 79.8438 39.7344 81.0625 36.6406C82.2812 33.5156 83.9219 30.8906 85.9844 28.7656C88.0469 26.6094 90.4531 24.9844 93.2031 23.8906C95.9531 22.7969 98.875 22.25 101.969 22.25C105.188 22.25 108.125 22.7969 110.781 23.8906C113.469 24.9844 115.766 26.6094 117.672 28.7656C119.609 30.8906 121.109 33.5156 122.172 36.6406C123.234 39.7344 123.766 43.2969 123.766 47.3281C123.766 51.3594 123.156 54.9219 121.938 58.0156C120.719 61.1094 119.078 63.7031 117.016 65.7969C114.953 67.8906 112.547 69.4844 109.797 70.5781C107.047 71.6406 104.125 72.1719 101.031 72.1719C97.8125 72.1719 94.8594 71.6406 92.1719 70.5781C89.5156 69.4844 87.2188 67.8906 85.2812 65.7969C83.375 63.7031 81.8906 61.1094 80.8281 58.0156C79.7656 54.9219 79.2344 51.3594 79.2344 47.3281ZM168.516 71V45.2188C168.516 42.2812 168.312 39.8594 167.906 37.9531C167.531 36.0469 166.953 34.5469 166.172 33.4531C165.422 32.3281 164.453 31.5469 163.266 31.1094C162.109 30.6719 160.734 30.4531 159.141 30.4531C157.453 30.4531 155.797 30.8594 154.172 31.6719C152.578 32.4531 151.109 33.4844 149.766 34.7656C148.422 36.0156 147.234 37.4375 146.203 39.0312C145.172 40.625 144.406 42.2188 143.906 43.8125V71H135.234V42.1719C135.234 37.5469 134.969 33.6406 134.438 30.4531C133.938 27.2344 133.422 24.8125 132.891 23.1875H141.328C141.516 23.6875 141.703 24.3438 141.891 25.1562C142.078 25.9375 142.25 26.7656 142.406 27.6406C142.562 28.5156 142.703 29.375 142.828 30.2188L143.203 32.3281C146.172 28.7656 149.172 26.2031 152.203 24.6406C155.234 23.0469 158.406 22.25 161.719 22.25C166.719 22.25 170.547 23.8906 173.203 27.1719C175.859 30.4219 177.188 35.2656 177.188 41.7031V71H168.516Z" />
<path d="M221.047 30.5938C220.672 30.5 220.25 30.4062 219.781 30.3125C219.312 30.2188 218.75 30.125 218.094 30.0312C217.469 29.9375 216.719 29.875 215.844 29.8438C215 29.7812 214 29.75 212.844 29.75C209.781 29.75 207.219 30.375 205.156 31.625C203.125 32.8438 201.5 34.4844 200.281 36.5469C199.062 38.5781 198.188 40.9219 197.656 43.5781C197.156 46.2344 196.906 48.9688 196.906 51.7812C196.906 53.5938 197.078 55.2656 197.422 56.7969C197.797 58.2969 198.297 59.6094 198.922 60.7344C199.547 61.8281 200.266 62.6875 201.078 63.3125C201.891 63.9062 202.766 64.2031 203.703 64.2031C205.078 64.2031 206.453 63.6719 207.828 62.6094C209.234 61.5469 210.578 60.1875 211.859 58.5312C213.141 56.8438 214.344 54.9688 215.469 52.9062C216.594 50.8125 217.562 48.75 218.375 46.7188C219.219 44.6562 219.875 42.7188 220.344 40.9062C220.812 39.0938 221.047 37.6406 221.047 36.5469V30.5938ZM224.562 71C224.219 70.25 223.906 69.2188 223.625 67.9062C223.375 66.5938 223.156 65.2031 222.969 63.7344C222.812 62.2344 222.688 60.75 222.594 59.2812C222.5 57.8125 222.453 56.5625 222.453 55.5312V51.7812C221.516 54.2188 220.391 56.6562 219.078 59.0938C217.797 61.5 216.312 63.6719 214.625 65.6094C212.969 67.5469 211.109 69.125 209.047 70.3438C206.984 71.5625 204.734 72.1719 202.297 72.1719C200.328 72.1719 198.484 71.7344 196.766 70.8594C195.047 69.9844 193.547 68.6875 192.266 66.9688C191.016 65.25 190.031 63.125 189.312 60.5938C188.594 58.0312 188.234 55.0938 188.234 51.7812C188.234 48.0625 188.734 44.4375 189.734 40.9062C190.734 37.3438 192.266 34.1875 194.328 31.4375C196.391 28.6562 199.016 26.4375 202.203 24.7812C205.391 23.0938 209.172 22.25 213.547 22.25C216.578 22.25 219.438 22.4531 222.125 22.8594C224.812 23.2344 227.344 23.7344 229.719 24.3594V46.1562C229.719 52.0625 230 57.0312 230.562 61.0625C231.125 65.0625 231.859 68.375 232.766 71H224.562ZM281.266 71H272.594V44.2812C272.594 41.375 272.484 39.0312 272.266 37.25C272.047 35.4375 271.672 34.0312 271.141 33.0312C270.641 32 269.953 31.3125 269.078 30.9688C268.203 30.625 267.109 30.4531 265.797 30.4531C264.641 30.4531 263.484 30.6875 262.328 31.1562C261.172 31.625 260.062 32.2969 259 33.1719C257.969 34.0156 257 35.0312 256.094 36.2188C255.219 37.375 254.469 38.6562 253.844 40.0625V71H245.172V42.1719C245.172 37.5469 244.906 33.6406 244.375 30.4531C243.844 27.2344 243.328 24.8125 242.828 23.1875H251.266C251.609 24.1875 251.906 25.375 252.156 26.75C252.406 28.0938 252.609 29.3281 252.766 30.4531C254.203 28.7969 255.578 27.4375 256.891 26.375C258.203 25.3125 259.5 24.4844 260.781 23.8906C262.094 23.2656 263.391 22.8438 264.672 22.625C265.953 22.375 267.266 22.25 268.609 22.25C270.141 22.25 271.531 22.4688 272.781 22.9062C274.031 23.3438 275.125 23.9219 276.062 24.6406C277.031 25.3594 277.859 26.2031 278.547 27.1719C279.234 28.1094 279.766 29.0938 280.141 30.125C281.609 28.5312 283.031 27.2344 284.406 26.2344C285.781 25.2031 287.125 24.4062 288.438 23.8438C289.75 23.25 291.031 22.8438 292.281 22.625C293.562 22.375 294.812 22.25 296.031 22.25C298.406 22.25 300.406 22.6406 302.031 23.4219C303.656 24.1719 304.953 25.2969 305.922 26.7969C306.922 28.2969 307.625 30.1562 308.031 32.375C308.469 34.5938 308.688 37.1562 308.688 40.0625V71H300.016V45.2188C300.016 42.1875 299.906 39.7188 299.688 37.8125C299.469 35.9062 299.094 34.4062 298.562 33.3125C298.062 32.2188 297.375 31.4688 296.5 31.0625C295.625 30.6562 294.531 30.4531 293.219 30.4531C292.062 30.4531 290.922 30.6875 289.797 31.1562C288.672 31.5938 287.578 32.2344 286.516 33.0781C285.484 33.8906 284.516 34.8906 283.609 36.0781C282.734 37.2656 281.953 38.5938 281.266 40.0625V71ZM323.016 7.95312C323.016 7.07812 323.156 6.26562 323.438 5.51562C323.719 4.73438 324.109 4.0625 324.609 3.5C325.141 2.90625 325.766 2.45312 326.484 2.14062C327.203 1.79688 328 1.625 328.875 1.625C329.75 1.625 330.562 1.79688 331.312 2.14062C332.062 2.45312 332.703 2.90625 333.234 3.5C333.766 4.0625 334.188 4.73438 334.5 5.51562C334.812 6.26562 334.969 7.07812 334.969 7.95312C334.969 8.82812 334.812 9.65625 334.5 10.4375C334.188 11.1875 333.766 11.8594 333.234 12.4531C332.703 13.0156 332.062 13.4688 331.312 13.8125C330.562 14.125 329.75 14.2812 328.875 14.2812C328 14.2812 327.203 14.125 326.484 13.8125C325.766 13.4688 325.141 13.0156 324.609 12.4531C324.109 11.8594 323.719 11.1875 323.438 10.4375C323.156 9.65625 323.016 8.82812 323.016 7.95312ZM333.328 48.7344C333.328 50.2344 333.344 52.0156 333.375 54.0781C333.438 56.1094 333.5 58.1719 333.562 60.2656C333.656 62.3594 333.75 64.3594 333.844 66.2656C333.969 68.1719 334.109 69.75 334.266 71H324.656V46.1562C324.656 43.875 324.641 41.625 324.609 39.4062C324.609 37.1875 324.578 35.0938 324.516 33.125C324.484 31.125 324.422 29.2812 324.328 27.5938C324.234 25.875 324.109 24.4062 323.953 23.1875H333.328V48.7344Z" />

<path d="M40.2969 71H31.625V44.2812C31.625 41.375 31.5156 39.0312 31.2969 37.25C31.0781 35.4375 30.7031 34.0312 30.1719 33.0312C29.6719 32 28.9844 31.3125 28.1094 30.9688C27.2344 30.625 26.1406 30.4531 24.8281 30.4531C23.6719 30.4531 22.5156 30.6875 21.3594 31.1562C20.2031 31.625 19.0938 32.2969 18.0312 33.1719C17 34.0156 16.0312 35.0312 15.125 36.2188C14.25 37.375 13.5 38.6562 12.875 40.0625V71H4.20312V42.1719C4.20312 37.5469 3.9375 33.6406 3.40625 30.4531C2.875 27.2344 2.35938 24.8125 1.85938 23.1875H10.2969C10.6406 24.1875 10.9375 25.375 11.1875 26.75C11.4375 28.0938 11.6406 29.3281 11.7969 30.4531C13.2344 28.7969 14.6094 27.4375 15.9219 26.375C17.2344 25.3125 18.5312 24.4844 19.8125 23.8906C21.125 23.2656 22.4219 22.8438 23.7031 22.625C24.9844 22.375 26.2969 22.25 27.6406 22.25C29.1719 22.25 30.5625 22.4688 31.8125 22.9062C33.0625 23.3438 34.1562 23.9219 35.0938 24.6406C36.0625 25.3594 36.8906 26.2031 37.5781 27.1719C38.2656 28.1094 38.7969 29.0938 39.1719 30.125C40.6406 28.5312 42.0625 27.2344 43.4375 26.2344C44.8125 25.2031 46.1562 24.4062 47.4688 23.8438C48.7812 23.25 50.0625 22.8438 51.3125 22.625C52.5938 22.375 53.8438 22.25 55.0625 22.25C57.4375 22.25 59.4375 22.6406 61.0625 23.4219C62.6875 24.1719 63.9844 25.2969 64.9531 26.7969C65.9531 28.2969 66.6562 30.1562 67.0625 32.375C67.5 34.5938 67.7188 37.1562 67.7188 40.0625V71H59.0469V45.2188C59.0469 42.1875 58.9375 39.7188 58.7188 37.8125C58.5 35.9062 58.125 34.4062 57.5938 33.3125C57.0938 32.2188 56.4062 31.4688 55.5312 31.0625C54.6562 30.6562 53.5625 30.4531 52.25 30.4531C51.0938 30.4531 49.9531 30.6875 48.8281 31.1562C47.7031 31.5938 46.6094 32.2344 45.5469 33.0781C44.5156 33.8906 43.5469 34.8906 42.6406 36.0781C41.7656 37.2656 40.9844 38.5938 40.2969 40.0625V71ZM87.9062 47.3281C87.9062 50.0469 88.2344 52.4844 88.8906 54.6406C89.5469 56.7969 90.4688 58.625 91.6562 60.125C92.875 61.5938 94.3125 62.7188 95.9688 63.5C97.625 64.2812 99.4688 64.6719 101.5 64.6719C103.375 64.6719 105.141 64.2812 106.797 63.5C108.453 62.7188 109.891 61.5938 111.109 60.125C112.359 58.625 113.328 56.7969 114.016 54.6406C114.734 52.4844 115.094 50.0469 115.094 47.3281C115.094 44.5781 114.766 42.125 114.109 39.9688C113.453 37.7812 112.516 35.9375 111.297 34.4375C110.109 32.9062 108.672 31.75 106.984 30.9688C105.328 30.1562 103.5 29.75 101.5 29.75C99.5938 29.75 97.8125 30.1562 96.1562 30.9688C94.5 31.75 93.0625 32.9062 91.8438 34.4375C90.625 35.9375 89.6562 37.7812 88.9375 39.9688C88.25 42.125 87.9062 44.5781 87.9062 47.3281ZM79.2344 47.3281C79.2344 43.2969 79.8438 39.7344 81.0625 36.6406C82.2812 33.5156 83.9219 30.8906 85.9844 28.7656C88.0469 26.6094 90.4531 24.9844 93.2031 23.8906C95.9531 22.7969 98.875 22.25 101.969 22.25C105.188 22.25 108.125 22.7969 110.781 23.8906C113.469 24.9844 115.766 26.6094 117.672 28.7656C119.609 30.8906 121.109 33.5156 122.172 36.6406C123.234 39.7344 123.766 43.2969 123.766 47.3281C123.766 51.3594 123.156 54.9219 121.938 58.0156C120.719 61.1094 119.078 63.7031 117.016 65.7969C114.953 67.8906 112.547 69.4844 109.797 70.5781C107.047 71.6406 104.125 72.1719 101.031 72.1719C97.8125 72.1719 94.8594 71.6406 92.1719 70.5781C89.5156 69.4844 87.2188 67.8906 85.2812 65.7969C83.375 63.7031 81.8906 61.1094 80.8281 58.0156C79.7656 54.9219 79.2344 51.3594 79.2344 47.3281ZM168.516 71V45.2188C168.516 42.2812 168.312 39.8594 167.906 37.9531C167.531 36.0469 166.953 34.5469 166.172 33.4531C165.422 32.3281 164.453 31.5469 163.266 31.1094C162.109 30.6719 160.734 30.4531 159.141 30.4531C157.453 30.4531 155.797 30.8594 154.172 31.6719C152.578 32.4531 151.109 33.4844 149.766 34.7656C148.422 36.0156 147.234 37.4375 146.203 39.0312C145.172 40.625 144.406 42.2188 143.906 43.8125V71H135.234V42.1719C135.234 37.5469 134.969 33.6406 134.438 30.4531C133.938 27.2344 133.422 24.8125 132.891 23.1875H141.328C141.516 23.6875 141.703 24.3438 141.891 25.1562C142.078 25.9375 142.25 26.7656 142.406 27.6406C142.562 28.5156 142.703 29.375 142.828 30.2188L143.203 32.3281C146.172 28.7656 149.172 26.2031 152.203 24.6406C155.234 23.0469 158.406 22.25 161.719 22.25C166.719 22.25 170.547 23.8906 173.203 27.1719C175.859 30.4219 177.188 35.2656 177.188 41.7031V71H168.516Z" fill="#00BDA7"/>
<path d="M221.047 30.5938C220.672 30.5 220.25 30.4062 219.781 30.3125C219.312 30.2188 218.75 30.125 218.094 30.0312C217.469 29.9375 216.719 29.875 215.844 29.8438C215 29.7812 214 29.75 212.844 29.75C209.781 29.75 207.219 30.375 205.156 31.625C203.125 32.8438 201.5 34.4844 200.281 36.5469C199.062 38.5781 198.188 40.9219 197.656 43.5781C197.156 46.2344 196.906 48.9688 196.906 51.7812C196.906 53.5938 197.078 55.2656 197.422 56.7969C197.797 58.2969 198.297 59.6094 198.922 60.7344C199.547 61.8281 200.266 62.6875 201.078 63.3125C201.891 63.9062 202.766 64.2031 203.703 64.2031C205.078 64.2031 206.453 63.6719 207.828 62.6094C209.234 61.5469 210.578 60.1875 211.859 58.5312C213.141 56.8438 214.344 54.9688 215.469 52.9062C216.594 50.8125 217.562 48.75 218.375 46.7188C219.219 44.6562 219.875 42.7188 220.344 40.9062C220.812 39.0938 221.047 37.6406 221.047 36.5469V30.5938ZM224.562 71C224.219 70.25 223.906 69.2188 223.625 67.9062C223.375 66.5938 223.156 65.2031 222.969 63.7344C222.812 62.2344 222.688 60.75 222.594 59.2812C222.5 57.8125 222.453 56.5625 222.453 55.5312V51.7812C221.516 54.2188 220.391 56.6562 219.078 59.0938C217.797 61.5 216.312 63.6719 214.625 65.6094C212.969 67.5469 211.109 69.125 209.047 70.3438C206.984 71.5625 204.734 72.1719 202.297 72.1719C200.328 72.1719 198.484 71.7344 196.766 70.8594C195.047 69.9844 193.547 68.6875 192.266 66.9688C191.016 65.25 190.031 63.125 189.312 60.5938C188.594 58.0312 188.234 55.0938 188.234 51.7812C188.234 48.0625 188.734 44.4375 189.734 40.9062C190.734 37.3438 192.266 34.1875 194.328 31.4375C196.391 28.6562 199.016 26.4375 202.203 24.7812C205.391 23.0938 209.172 22.25 213.547 22.25C216.578 22.25 219.438 22.4531 222.125 22.8594C224.812 23.2344 227.344 23.7344 229.719 24.3594V46.1562C229.719 52.0625 230 57.0312 230.562 61.0625C231.125 65.0625 231.859 68.375 232.766 71H224.562ZM281.266 71H272.594V44.2812C272.594 41.375 272.484 39.0312 272.266 37.25C272.047 35.4375 271.672 34.0312 271.141 33.0312C270.641 32 269.953 31.3125 269.078 30.9688C268.203 30.625 267.109 30.4531 265.797 30.4531C264.641 30.4531 263.484 30.6875 262.328 31.1562C261.172 31.625 260.062 32.2969 259 33.1719C257.969 34.0156 257 35.0312 256.094 36.2188C255.219 37.375 254.469 38.6562 253.844 40.0625V71H245.172V42.1719C245.172 37.5469 244.906 33.6406 244.375 30.4531C243.844 27.2344 243.328 24.8125 242.828 23.1875H251.266C251.609 24.1875 251.906 25.375 252.156 26.75C252.406 28.0938 252.609 29.3281 252.766 30.4531C254.203 28.7969 255.578 27.4375 256.891 26.375C258.203 25.3125 259.5 24.4844 260.781 23.8906C262.094 23.2656 263.391 22.8438 264.672 22.625C265.953 22.375 267.266 22.25 268.609 22.25C270.141 22.25 271.531 22.4688 272.781 22.9062C274.031 23.3438 275.125 23.9219 276.062 24.6406C277.031 25.3594 277.859 26.2031 278.547 27.1719C279.234 28.1094 279.766 29.0938 280.141 30.125C281.609 28.5312 283.031 27.2344 284.406 26.2344C285.781 25.2031 287.125 24.4062 288.438 23.8438C289.75 23.25 291.031 22.8438 292.281 22.625C293.562 22.375 294.812 22.25 296.031 22.25C298.406 22.25 300.406 22.6406 302.031 23.4219C303.656 24.1719 304.953 25.2969 305.922 26.7969C306.922 28.2969 307.625 30.1562 308.031 32.375C308.469 34.5938 308.688 37.1562 308.688 40.0625V71H300.016V45.2188C300.016 42.1875 299.906 39.7188 299.688 37.8125C299.469 35.9062 299.094 34.4062 298.562 33.3125C298.062 32.2188 297.375 31.4688 296.5 31.0625C295.625 30.6562 294.531 30.4531 293.219 30.4531C292.062 30.4531 290.922 30.6875 289.797 31.1562C288.672 31.5938 287.578 32.2344 286.516 33.0781C285.484 33.8906 284.516 34.8906 283.609 36.0781C282.734 37.2656 281.953 38.5938 281.266 40.0625V71ZM323.016 7.95312C323.016 7.07812 323.156 6.26562 323.438 5.51562C323.719 4.73438 324.109 4.0625 324.609 3.5C325.141 2.90625 325.766 2.45312 326.484 2.14062C327.203 1.79688 328 1.625 328.875 1.625C329.75 1.625 330.562 1.79688 331.312 2.14062C332.062 2.45312 332.703 2.90625 333.234 3.5C333.766 4.0625 334.188 4.73438 334.5 5.51562C334.812 6.26562 334.969 7.07812 334.969 7.95312C334.969 8.82812 334.812 9.65625 334.5 10.4375C334.188 11.1875 333.766 11.8594 333.234 12.4531C332.703 13.0156 332.062 13.4688 331.312 13.8125C330.562 14.125 329.75 14.2812 328.875 14.2812C328 14.2812 327.203 14.125 326.484 13.8125C325.766 13.4688 325.141 13.0156 324.609 12.4531C324.109 11.8594 323.719 11.1875 323.438 10.4375C323.156 9.65625 323.016 8.82812 323.016 7.95312ZM333.328 48.7344C333.328 50.2344 333.344 52.0156 333.375 54.0781C333.438 56.1094 333.5 58.1719 333.562 60.2656C333.656 62.3594 333.75 64.3594 333.844 66.2656C333.969 68.1719 334.109 69.75 334.266 71H324.656V46.1562C324.656 43.875 324.641 41.625 324.609 39.4062C324.609 37.1875 324.578 35.0938 324.516 33.125C324.484 31.125 324.422 29.2812 324.328 27.5938C324.234 25.875 324.109 24.4062 323.953 23.1875H333.328V48.7344Z" fill="white"/>
<path d="M40.2969 71V72H41.2969V71H40.2969ZM31.625 71H30.625V72H31.625V71ZM31.2969 37.25L30.3041 37.3698L30.3043 37.3719L31.2969 37.25ZM30.1719 33.0312L29.2721 33.4675L29.2801 33.4841L29.2888 33.5004L30.1719 33.0312ZM18.0312 33.1719L18.6645 33.9458L18.667 33.9438L18.0312 33.1719ZM15.125 36.2188L14.33 35.6121L14.3276 35.6153L15.125 36.2188ZM12.875 40.0625L11.9612 39.6564L11.875 39.8503V40.0625H12.875ZM12.875 71V72H13.875V71H12.875ZM4.20312 71H3.20312V72H4.20312V71ZM3.40625 30.4531L2.4196 30.616L2.41986 30.6175L3.40625 30.4531ZM1.85938 23.1875V22.1875H0.505416L0.903596 23.4816L1.85938 23.1875ZM10.2969 23.1875L11.2426 22.8624L11.0106 22.1875H10.2969V23.1875ZM11.1875 26.75L10.2036 26.9289L10.2044 26.9329L11.1875 26.75ZM11.7969 30.4531L10.8064 30.5907L11.1092 32.7711L12.5521 31.1086L11.7969 30.4531ZM19.8125 23.8906L20.233 24.798L20.2424 24.7935L19.8125 23.8906ZM23.7031 22.625L23.8714 23.6107L23.8831 23.6088L23.8946 23.6065L23.7031 22.625ZM35.0938 24.6406L34.4853 25.4342L34.4916 25.439L34.4979 25.4437L35.0938 24.6406ZM37.5781 27.1719L36.7626 27.7506L36.7671 27.757L36.7717 27.7632L37.5781 27.1719ZM39.1719 30.125L38.2321 30.4667L38.7936 32.011L39.9072 30.8027L39.1719 30.125ZM43.4375 26.2344L44.0257 27.0431L44.0316 27.0388L44.0375 27.0344L43.4375 26.2344ZM47.4688 23.8438L47.8627 24.7629L47.8718 24.759L47.8809 24.7549L47.4688 23.8438ZM51.3125 22.625L51.4849 23.61L51.4945 23.6084L51.504 23.6065L51.3125 22.625ZM61.0625 23.4219L60.6292 24.3231L60.6363 24.3265L60.6434 24.3298L61.0625 23.4219ZM64.9531 26.7969L64.1131 27.3394L64.117 27.3455L64.1211 27.3516L64.9531 26.7969ZM67.0625 32.375L66.0788 32.5551L66.0814 32.5685L67.0625 32.375ZM67.7188 71V72H68.7188V71H67.7188ZM59.0469 71H58.0469V72H59.0469V71ZM57.5938 33.3125L56.6843 33.7283L56.6891 33.7389L56.6942 33.7494L57.5938 33.3125ZM48.8281 31.1562L49.1906 32.0883L49.2017 32.0839L49.2127 32.0793L48.8281 31.1562ZM45.5469 33.0781L46.1658 33.8636L46.1688 33.8612L45.5469 33.0781ZM42.6406 36.0781L41.8457 35.4715L41.8406 35.4781L41.8356 35.4849L42.6406 36.0781ZM40.2969 40.0625L39.3912 39.6386L39.2969 39.84V40.0625H40.2969ZM40.2969 71V70H31.625V71V72H40.2969V71ZM31.625 71H32.625V44.2812H31.625H30.625V71H31.625ZM31.625 44.2812H32.625C32.625 41.3559 32.5152 38.9667 32.2894 37.1281L31.2969 37.25L30.3043 37.3719C30.516 39.0958 30.625 41.3941 30.625 44.2812H31.625ZM31.2969 37.25L32.2897 37.1302C32.0641 35.2611 31.6685 33.7169 31.055 32.5621L30.1719 33.0312L29.2888 33.5004C29.7378 34.3456 30.0922 35.6139 30.3041 37.3698L31.2969 37.25ZM30.1719 33.0312L31.0717 32.595C30.4873 31.3898 29.6327 30.4928 28.475 30.038L28.1094 30.9688L27.7437 31.8995C28.336 32.1322 28.8564 32.6102 29.2721 33.4675L30.1719 33.0312ZM28.1094 30.9688L28.475 30.038C27.4473 29.6342 26.2198 29.4531 24.8281 29.4531V30.4531V31.4531C26.0615 31.4531 27.0215 31.6158 27.7437 31.8995L28.1094 30.9688ZM24.8281 30.4531V29.4531C23.5332 29.4531 22.2498 29.7162 20.9837 30.2295L21.3594 31.1562L21.7351 32.083C22.7815 31.6588 23.8105 31.4531 24.8281 31.4531V30.4531ZM21.3594 31.1562L20.9837 30.2295C19.7242 30.7401 18.5283 31.4671 17.3955 32.3999L18.0312 33.1719L18.667 33.9438C19.6592 33.1267 20.682 32.5099 21.7351 32.083L21.3594 31.1562ZM18.0312 33.1719L17.398 32.3979C16.2998 33.2965 15.2779 34.3701 14.33 35.6121L15.125 36.2188L15.92 36.8254C16.7846 35.6924 17.7002 34.7348 18.6645 33.9458L18.0312 33.1719ZM15.125 36.2188L14.3276 35.6153C13.4036 36.8363 12.6154 38.1844 11.9612 39.6564L12.875 40.0625L13.7888 40.4686C14.3846 39.1281 15.0964 37.9137 15.9224 36.8222L15.125 36.2188ZM12.875 40.0625H11.875V71H12.875H13.875V40.0625H12.875ZM12.875 71V70H4.20312V71V72H12.875V71ZM4.20312 71H5.20312V42.1719H4.20312H3.20312V71H4.20312ZM4.20312 42.1719H5.20312C5.20312 37.5132 4.93589 33.5482 4.39264 30.2887L3.40625 30.4531L2.41986 30.6175C2.93911 33.733 3.20312 37.5806 3.20312 42.1719H4.20312ZM3.40625 30.4531L4.3929 30.2903C3.85968 27.0596 3.33543 24.5843 2.81515 22.8934L1.85938 23.1875L0.903596 23.4816C1.38332 25.0407 1.89032 27.4092 2.4196 30.616L3.40625 30.4531ZM1.85938 23.1875V24.1875H10.2969V23.1875V22.1875H1.85938V23.1875ZM10.2969 23.1875L9.35119 23.5126C9.6743 24.4525 9.95997 25.5887 10.2036 26.9289L11.1875 26.75L12.1714 26.5711C11.915 25.1613 11.607 23.9225 11.2426 22.8624L10.2969 23.1875ZM11.1875 26.75L10.2044 26.9329C10.4521 28.2645 10.6526 29.4835 10.8064 30.5907L11.7969 30.4531L12.7874 30.3156C12.6286 29.1727 12.4229 27.923 12.1706 26.5671L11.1875 26.75ZM11.7969 30.4531L12.5521 31.1086C13.9619 29.4842 15.2952 28.1689 16.5511 27.1522L15.9219 26.375L15.2927 25.5978C13.9236 26.7061 12.5068 28.1095 11.0417 29.7977L11.7969 30.4531ZM15.9219 26.375L16.5511 27.1522C17.8117 26.1318 19.0392 25.3511 20.233 24.7979L19.8125 23.8906L19.392 22.9833C18.0233 23.6176 16.6571 24.4932 15.2927 25.5978L15.9219 26.375ZM19.8125 23.8906L20.2424 24.7935C21.4816 24.2034 22.6908 23.8123 23.8714 23.6107L23.7031 22.625L23.5348 21.6393C22.153 21.8752 20.7684 22.3279 19.3826 22.9878L19.8125 23.8906ZM23.7031 22.625L23.8946 23.6065C25.111 23.3692 26.3593 23.25 27.6406 23.25V22.25V21.25C26.2345 21.25 24.8578 21.3808 23.5116 21.6435L23.7031 22.625ZM27.6406 22.25V23.25C29.0766 23.25 30.3535 23.4551 31.4821 23.8501L31.8125 22.9062L32.1429 21.9624C30.7715 21.4824 29.2671 21.25 27.6406 21.25V22.25ZM31.8125 22.9062L31.4821 23.8501C32.6441 24.2568 33.6415 24.7873 34.4853 25.4342L35.0938 24.6406L35.7022 23.847C34.671 23.0565 33.4809 22.4307 32.1429 21.9624L31.8125 22.9062ZM35.0938 24.6406L34.4979 25.4437C35.3834 26.1007 36.137 26.8691 36.7626 27.7506L37.5781 27.1719L38.3936 26.5931C37.6442 25.5372 36.7416 24.618 35.6896 23.8375L35.0938 24.6406ZM37.5781 27.1719L36.7717 27.7632C37.4065 28.6288 37.8914 29.5298 38.2321 30.4667L39.1719 30.125L40.1117 29.7833C39.7024 28.6577 39.1248 27.5899 38.3845 26.5805L37.5781 27.1719ZM39.1719 30.125L39.9072 30.8027C41.3429 29.2449 42.7161 27.9955 44.0257 27.0431L43.4375 26.2344L42.8493 25.4256C41.4089 26.4732 39.9384 27.8176 38.4365 29.4473L39.1719 30.125ZM43.4375 26.2344L44.0375 27.0344C45.3612 26.0416 46.6364 25.2884 47.8627 24.7629L47.4688 23.8438L47.0748 22.9246C45.6761 23.5241 44.2638 24.3647 42.8375 25.4344L43.4375 26.2344ZM47.4688 23.8438L47.8809 24.7549C49.127 24.1911 50.3279 23.8125 51.4849 23.61L51.3125 22.625L51.1401 21.64C49.7971 21.875 48.4355 22.3089 47.0566 22.9326L47.4688 23.8438ZM51.3125 22.625L51.504 23.6065C52.7266 23.3679 53.9124 23.25 55.0625 23.25V22.25V21.25C53.7751 21.25 52.4609 21.3821 51.121 21.6435L51.3125 22.625ZM55.0625 22.25V23.25C57.3331 23.25 59.1752 23.6241 60.6292 24.3231L61.0625 23.4219L61.4958 22.5206C59.6998 21.6572 57.5419 21.25 55.0625 21.25V22.25ZM61.0625 23.4219L60.6434 24.3298C62.0967 25.0006 63.2474 25.999 64.1131 27.3394L64.9531 26.7969L65.7932 26.2543C64.7213 24.5947 63.2783 23.3432 61.4816 22.5139L61.0625 23.4219ZM64.9531 26.7969L64.1211 27.3516C65.0292 28.7137 65.6912 30.4377 66.0789 32.5551L67.0625 32.375L68.0461 32.1949C67.6213 29.8748 66.8771 27.88 65.7852 26.2422L64.9531 26.7969ZM67.0625 32.375L66.0814 32.5685C66.5034 34.7085 66.7188 37.2039 66.7188 40.0625H67.7188H68.7188C68.7188 37.1086 68.4966 34.479 68.0436 32.1815L67.0625 32.375ZM67.7188 40.0625H66.7188V71H67.7188H68.7188V40.0625H67.7188ZM67.7188 71V70H59.0469V71V72H67.7188V71ZM59.0469 71H60.0469V45.2188H59.0469H58.0469V71H59.0469ZM59.0469 45.2188H60.0469C60.0469 42.1685 59.9371 39.6577 59.7122 37.6985L58.7188 37.8125L57.7253 37.9265C57.9379 39.7798 58.0469 42.2065 58.0469 45.2188H59.0469ZM58.7188 37.8125L59.7122 37.6985C59.4872 35.7372 59.0939 34.1122 58.4933 32.8756L57.5938 33.3125L56.6942 33.7494C57.1561 34.7003 57.5128 36.0753 57.7253 37.9265L58.7188 37.8125ZM57.5938 33.3125L58.5032 32.8967C57.9294 31.6415 57.0928 30.685 55.9524 30.1555L55.5312 31.0625L55.1101 31.9695C55.7197 32.2525 56.2581 32.796 56.6843 33.7283L57.5938 33.3125ZM55.5312 31.0625L55.9524 30.1555C54.9069 29.6701 53.6584 29.4531 52.25 29.4531V30.4531V31.4531C53.4666 31.4531 54.4056 31.6424 55.1101 31.9695L55.5312 31.0625ZM52.25 30.4531V29.4531C50.9547 29.4531 49.6837 29.7164 48.4435 30.2332L48.8281 31.1562L49.2127 32.0793C50.2226 31.6586 51.2328 31.4531 52.25 31.4531V30.4531ZM48.8281 31.1562L48.4657 30.2242C47.2364 30.7023 46.0564 31.3965 44.925 32.295L45.5469 33.0781L46.1688 33.8612C47.1623 33.0722 48.1698 32.4852 49.1906 32.0883L48.8281 31.1562ZM45.5469 33.0781L44.928 32.2926C43.8225 33.1637 42.796 34.2262 41.8457 35.4715L42.6406 36.0781L43.4356 36.6848C44.2977 35.5551 45.2088 34.6176 46.1657 33.8636L45.5469 33.0781ZM42.6406 36.0781L41.8356 35.4849C40.9179 36.7303 40.1039 38.116 39.3912 39.6386L40.2969 40.0625L41.2026 40.4864C41.8649 39.0715 42.6133 37.8009 43.4457 36.6713L42.6406 36.0781ZM40.2969 40.0625H39.2969V71H40.2969H41.2969V40.0625H40.2969ZM91.6562 60.125L90.8722 60.7457L90.8793 60.7547L90.8867 60.7636L91.6562 60.125ZM111.109 60.125L110.341 59.4848L110.34 59.4864L111.109 60.125ZM114.016 54.6406L113.067 54.3244L113.063 54.3369L114.016 54.6406ZM114.109 39.9688L113.152 40.2561L113.153 40.2599L114.109 39.9688ZM111.297 34.4375L110.507 35.0503L110.514 35.0593L110.521 35.0681L111.297 34.4375ZM106.984 30.9688L106.544 31.8665L106.554 31.8715L106.564 31.8762L106.984 30.9688ZM96.1562 30.9688L96.5829 31.8732L96.5898 31.8699L96.5967 31.8665L96.1562 30.9688ZM91.8438 34.4375L92.6199 35.0681L92.6262 35.0602L91.8438 34.4375ZM88.9375 39.9688L87.9874 39.6566L87.9848 39.665L88.9375 39.9688ZM81.0625 36.6406L81.9929 37.0072L81.9942 37.004L81.0625 36.6406ZM85.9844 28.7656L86.702 29.4621L86.707 29.4568L85.9844 28.7656ZM110.781 23.8906L110.4 24.8153L110.404 24.8169L110.781 23.8906ZM117.672 28.7656L116.923 29.428L116.928 29.4337L116.933 29.4394L117.672 28.7656ZM122.172 36.6406L121.225 36.9625L121.226 36.9654L122.172 36.6406ZM109.797 70.5781L110.157 71.511L110.166 71.5073L109.797 70.5781ZM92.1719 70.5781L91.7911 71.5029L91.8042 71.5081L92.1719 70.5781ZM85.2812 65.7969L84.5418 66.4701L84.5473 66.4761L85.2812 65.7969ZM87.9062 47.3281H86.9062C86.9062 50.1259 87.2438 52.6641 87.934 54.9318L88.8906 54.6406L89.8473 54.3495C89.225 52.3047 88.9062 49.9678 88.9062 47.3281H87.9062ZM88.8906 54.6406L87.934 54.9318C88.6203 57.1868 89.5946 59.1318 90.8722 60.7457L91.6562 60.125L92.4403 59.5043C91.3429 58.1182 90.4735 56.407 89.8473 54.3495L88.8906 54.6406ZM91.6562 60.125L90.8867 60.7636C92.1949 62.3401 93.7479 63.5581 95.5421 64.4044L95.9688 63.5L96.3954 62.5956C94.8771 61.8794 93.5551 60.8474 92.4258 59.4864L91.6562 60.125ZM95.9688 63.5L95.5421 64.4044C97.3458 65.2552 99.3375 65.6719 101.5 65.6719V64.6719V63.6719C99.6 63.6719 97.9042 63.3073 96.3954 62.5956L95.9688 63.5ZM101.5 64.6719V65.6719C103.519 65.6719 105.431 65.2501 107.223 64.4044L106.797 63.5L106.37 62.5956C104.851 63.3124 103.231 63.6719 101.5 63.6719V64.6719ZM106.797 63.5L107.223 64.4044C109.018 63.5581 110.571 62.3401 111.879 60.7636L111.109 60.125L110.34 59.4864C109.21 60.8474 107.888 61.8794 106.37 62.5956L106.797 63.5ZM111.109 60.125L111.878 60.7652C113.222 59.1515 114.248 57.2043 114.968 54.9444L114.016 54.6406L113.063 54.3369C112.408 56.3894 111.496 58.0985 110.341 59.4848L111.109 60.125ZM114.016 54.6406L114.964 54.9569C115.723 52.6809 116.094 50.1339 116.094 47.3281H115.094H114.094C114.094 49.9598 113.746 52.2879 113.067 54.3244L114.016 54.6406ZM115.094 47.3281H116.094C116.094 44.5003 115.757 41.9463 115.066 39.6776L114.109 39.9688L113.153 40.2599C113.775 42.3037 114.094 44.6559 114.094 47.3281H115.094ZM114.109 39.9688L115.067 39.6814C114.38 37.3911 113.388 35.425 112.073 33.8069L111.297 34.4375L110.521 35.0681C111.644 36.45 112.526 38.1714 113.152 40.2561L114.109 39.9688ZM111.297 34.4375L112.087 33.8247C110.806 32.1725 109.243 30.9126 107.404 30.0613L106.984 30.9688L106.564 31.8762C108.1 32.5874 109.413 33.64 110.507 35.0503L111.297 34.4375ZM106.984 30.9688L107.425 30.071C105.62 29.1857 103.64 28.75 101.5 28.75V29.75V30.75C103.36 30.75 105.036 31.1268 106.544 31.8665L106.984 30.9688ZM101.5 29.75V28.75C99.4463 28.75 97.5138 29.1889 95.7158 30.071L96.1562 30.9688L96.5967 31.8665C98.1112 31.1236 99.7412 30.75 101.5 30.75V29.75ZM96.1562 30.9688L95.7296 30.0643C93.9253 30.9154 92.3688 32.172 91.0613 33.8148L91.8438 34.4375L92.6262 35.0602C93.7562 33.6405 95.0747 32.5846 96.5829 31.8732L96.1562 30.9688ZM91.8438 34.4375L91.0676 33.8069C89.7588 35.4178 88.7372 37.3749 87.9875 39.6566L88.9375 39.9688L89.8875 40.2809C90.5753 38.1876 91.4912 36.4572 92.6199 35.0681L91.8438 34.4375ZM88.9375 39.9688L87.9848 39.665C87.26 41.9379 86.9062 44.4964 86.9062 47.3281H87.9062H88.9062C88.9062 44.6598 89.24 42.3121 89.8902 40.2725L88.9375 39.9688ZM79.2344 47.3281H80.2344C80.2344 43.3964 80.8288 39.9623 81.9929 37.0071L81.0625 36.6406L80.1321 36.2741C78.8587 39.5065 78.2344 43.1973 78.2344 47.3281H79.2344ZM81.0625 36.6406L81.9942 37.004C83.1709 33.9868 84.7438 31.4796 86.702 29.4621L85.9844 28.7656L85.2668 28.0691C83.0999 30.3017 81.3916 33.0445 80.1308 36.2773L81.0625 36.6406ZM85.9844 28.7656L86.707 29.4568C88.6711 27.4035 90.9572 25.8601 93.5727 24.8198L93.2031 23.8906L92.8336 22.9614C89.949 24.1087 87.4226 25.8153 85.2617 28.0744L85.9844 28.7656ZM93.2031 23.8906L93.5727 24.8198C96.1998 23.775 98.9957 23.25 101.969 23.25V22.25V21.25C98.7543 21.25 95.7065 21.8188 92.8336 22.9614L93.2031 23.8906ZM101.969 22.25V23.25C105.073 23.25 107.879 23.7769 110.401 24.8153L110.781 23.8906L111.162 22.9659C108.371 21.8168 105.302 21.25 101.969 21.25V22.25ZM110.781 23.8906L110.404 24.8169C112.95 25.853 115.119 27.3882 116.923 29.428L117.672 28.7656L118.421 28.1033C116.412 25.8306 113.987 24.1158 111.158 22.9644L110.781 23.8906ZM117.672 28.7656L116.933 29.4394C118.765 31.4487 120.2 33.9487 121.225 36.9625L122.172 36.6406L123.119 36.3187C122.018 33.0825 120.454 30.3326 118.411 28.0919L117.672 28.7656ZM122.172 36.6406L121.226 36.9654C122.245 39.9336 122.766 43.3827 122.766 47.3281H123.766H124.766C124.766 43.2111 124.223 39.5351 123.118 36.3158L122.172 36.6406ZM123.766 47.3281H122.766C122.766 51.2598 122.171 54.694 121.007 57.6491L121.938 58.0156L122.868 58.3821C124.141 55.1498 124.766 51.4589 124.766 47.3281H123.766ZM121.938 58.0156L121.007 57.6491C119.831 60.634 118.26 63.1091 116.303 65.0951L117.016 65.7969L117.728 66.4986C119.897 64.2971 121.606 61.5848 122.868 58.3821L121.938 58.0156ZM117.016 65.7969L116.303 65.0951C114.339 67.0894 112.049 68.606 109.427 69.6489L109.797 70.5781L110.166 71.5073C113.044 70.3627 115.568 68.6919 117.728 66.4986L117.016 65.7969ZM109.797 70.5781L109.436 69.6453C106.807 70.6612 104.008 71.1719 101.031 71.1719V72.1719V73.1719C104.242 73.1719 107.287 72.62 110.157 71.5109L109.797 70.5781ZM101.031 72.1719V71.1719C97.9241 71.1719 95.0974 70.6594 92.5395 69.6482L92.1719 70.5781L91.8042 71.5081C94.6214 72.6218 97.7009 73.1719 101.031 73.1719V72.1719ZM92.1719 70.5781L92.5526 69.6534C90.0296 68.6145 87.8535 67.1042 86.0152 65.1177L85.2812 65.7969L84.5473 66.4761C86.584 68.6771 89.0017 70.3542 91.7911 71.5028L92.1719 70.5781ZM85.2812 65.7969L86.0207 65.1237C84.2194 63.1452 82.7989 60.6754 81.7739 57.6908L80.8281 58.0156L79.8823 58.3404C80.9823 61.5433 82.5306 64.261 84.5418 66.4701L85.2812 65.7969ZM80.8281 58.0156L81.7739 57.6908C80.7545 54.7226 80.2344 51.2736 80.2344 47.3281H79.2344H78.2344C78.2344 51.4452 78.7767 55.1211 79.8823 58.3404L80.8281 58.0156ZM168.516 71H167.516V72H168.516V71ZM167.906 37.9531L166.925 38.1461L166.927 38.1539L166.928 38.1616L167.906 37.9531ZM166.172 33.4531L165.34 34.0078L165.349 34.0212L165.358 34.0344L166.172 33.4531ZM163.266 31.1094L162.912 32.0447L162.92 32.0477L163.266 31.1094ZM154.172 31.6719L154.612 32.5698L154.619 32.5663L154.172 31.6719ZM149.766 34.7656L150.447 35.4979L150.456 35.4894L149.766 34.7656ZM143.906 43.8125L142.952 43.5132L142.906 43.6593V43.8125H143.906ZM143.906 71V72H144.906V71H143.906ZM135.234 71H134.234V72H135.234V71ZM134.438 30.4531L133.449 30.6066L133.451 30.6175L134.438 30.4531ZM132.891 23.1875V22.1875H131.512L131.94 23.4982L132.891 23.1875ZM141.328 23.1875L142.264 22.8364L142.021 22.1875H141.328V23.1875ZM141.891 25.1562L140.916 25.3811L140.918 25.3896L141.891 25.1562ZM142.828 30.2188L141.839 30.3653L141.841 30.3796L141.844 30.3938L142.828 30.2188ZM143.203 32.3281L142.219 32.5032L142.595 34.62L143.971 32.9683L143.203 32.3281ZM152.203 24.6406L152.661 25.5295L152.668 25.5257L152.203 24.6406ZM173.203 27.1719L172.426 27.8011L172.429 27.8047L173.203 27.1719ZM177.188 71V72H178.188V71H177.188ZM168.516 71H169.516V45.2188H168.516H167.516V71H168.516ZM168.516 45.2188H169.516C169.516 42.2427 169.31 39.7446 168.884 37.7447L167.906 37.9531L166.928 38.1616C167.315 39.9742 167.516 42.3198 167.516 45.2188H168.516ZM167.906 37.9531L168.887 37.7601C168.496 35.7715 167.878 34.1213 166.986 32.8719L166.172 33.4531L165.358 34.0344C166.028 34.9724 166.566 36.3223 166.925 38.1461L167.906 37.9531ZM166.172 33.4531L167.004 32.8984C166.145 31.6101 165.011 30.6868 163.611 30.171L163.266 31.1094L162.92 32.0477C163.895 32.4069 164.699 33.0462 165.34 34.0078L166.172 33.4531ZM163.266 31.1094L163.62 30.1741C162.323 29.6834 160.822 29.4531 159.141 29.4531V30.4531V31.4531C160.647 31.4531 161.896 31.6603 162.912 32.0447L163.266 31.1094ZM159.141 30.4531V29.4531C157.286 29.4531 155.478 29.901 153.725 30.7774L154.172 31.6719L154.619 32.5663C156.116 31.8178 157.62 31.4531 159.141 31.4531V30.4531ZM154.172 31.6719L153.732 30.774C152.042 31.6022 150.49 32.6934 149.076 34.0419L149.766 34.7656L150.456 35.4894C151.729 34.2753 153.114 33.3041 154.612 32.5698L154.172 31.6719ZM149.766 34.7656L149.085 34.0334C147.678 35.3415 146.438 36.8274 145.364 38.488L146.203 39.0312L147.043 39.5745C148.031 38.0476 149.165 36.6897 150.447 35.4978L149.766 34.7656ZM146.203 39.0312L145.364 38.488C144.29 40.1474 143.483 41.8225 142.952 43.5132L143.906 43.8125L144.86 44.1118C145.33 42.615 146.054 41.1026 147.043 39.5745L146.203 39.0312ZM143.906 43.8125H142.906V71H143.906H144.906V43.8125H143.906ZM143.906 71V70H135.234V71V72H143.906V71ZM135.234 71H136.234V42.1719H135.234H134.234V71H135.234ZM135.234 42.1719H136.234C136.234 37.5132 135.967 33.5482 135.424 30.2887L134.438 30.4531L133.451 30.6175C133.97 33.733 134.234 37.5806 134.234 42.1719H135.234ZM134.438 30.4531L135.426 30.2996C134.923 27.0661 134.398 24.5802 133.841 22.8768L132.891 23.1875L131.94 23.4982C132.446 25.0448 132.952 27.4026 133.449 30.6066L134.438 30.4531ZM132.891 23.1875V24.1875H141.328V23.1875V22.1875H132.891V23.1875ZM141.328 23.1875L140.392 23.5386C140.558 23.9813 140.734 24.5906 140.916 25.3811L141.891 25.1562L142.865 24.9314C142.672 24.0969 142.473 23.3937 142.264 22.8364L141.328 23.1875ZM141.891 25.1562L140.918 25.3896C141.101 26.1499 141.269 26.9587 141.422 27.8164L142.406 27.6406L143.391 27.4648C143.231 26.5725 143.056 25.7251 142.863 24.9229L141.891 25.1562ZM142.406 27.6406L141.422 27.8164C141.576 28.6821 141.715 29.5317 141.839 30.3653L142.828 30.2188L143.817 30.0722C143.691 29.2183 143.549 28.3492 143.391 27.4648L142.406 27.6406ZM142.828 30.2188L141.844 30.3938L142.219 32.5032L143.203 32.3281L144.188 32.1531L143.813 30.0437L142.828 30.2188ZM143.203 32.3281L143.971 32.9683C146.883 29.4739 149.784 27.0129 152.661 25.5295L152.203 24.6406L151.745 23.7518C148.56 25.3934 145.46 28.0574 142.435 31.6879L143.203 32.3281ZM152.203 24.6406L152.668 25.5257C155.561 24.0048 158.574 23.25 161.719 23.25V22.25V21.25C158.239 21.25 154.907 22.089 151.738 23.7555L152.203 24.6406ZM161.719 22.25V23.25C166.479 23.25 169.995 24.7986 172.426 27.8011L173.203 27.1719L173.98 26.5427C171.098 22.9826 166.959 21.25 161.719 21.25V22.25ZM173.203 27.1719L172.429 27.8047C174.879 30.8026 176.188 35.3791 176.188 41.7031H177.188H178.188C178.188 35.1522 176.84 30.0411 173.977 26.539L173.203 27.1719ZM177.188 41.7031H176.188V71H177.188H178.188V41.7031H177.188ZM177.188 71V70H168.516V71V72H177.188V71ZM221.047 30.5938H222.047V29.813L221.289 29.6236L221.047 30.5938ZM218.094 30.0312L217.945 31.0202L217.952 31.0212L218.094 30.0312ZM215.844 29.8438L215.77 30.841L215.789 30.8424L215.808 30.8431L215.844 29.8438ZM205.156 31.625L205.671 32.4825L205.675 32.4802L205.156 31.625ZM200.281 36.5469L201.139 37.0614L201.142 37.0556L200.281 36.5469ZM197.656 43.5781L196.676 43.382L196.674 43.3931L197.656 43.5781ZM197.422 56.7969L196.446 57.0159L196.449 57.0277L196.452 57.0394L197.422 56.7969ZM198.922 60.7344L198.048 61.2201L198.054 61.2305L198.922 60.7344ZM201.078 63.3125L200.468 64.1051L200.478 64.1126L200.488 64.1199L201.078 63.3125ZM207.828 62.6094L207.225 61.8115L207.217 61.8181L207.828 62.6094ZM211.859 58.5312L212.65 59.1431L212.656 59.136L211.859 58.5312ZM215.469 52.9062L216.347 53.3851L216.35 53.3796L215.469 52.9062ZM218.375 46.7188L217.449 46.3401L217.447 46.3474L218.375 46.7188ZM224.562 71L223.653 71.4167L223.921 72H224.562V71ZM223.625 67.9062L222.643 68.0934L222.645 68.1046L222.647 68.1158L223.625 67.9062ZM222.969 63.7344L221.974 63.838L221.975 63.8495L221.977 63.861L222.969 63.7344ZM222.453 51.7812H223.453L221.52 51.4223L222.453 51.7812ZM219.078 59.0938L218.198 58.6196L218.195 58.6238L219.078 59.0938ZM214.625 65.6094L213.871 64.9526L213.865 64.9596L214.625 65.6094ZM192.266 66.9688L191.457 67.557L191.464 67.5664L192.266 66.9688ZM189.312 60.5938L188.35 60.8638L188.351 60.8669L189.312 60.5938ZM189.734 40.9062L190.697 41.1787L190.697 41.1765L189.734 40.9062ZM194.328 31.4375L195.128 32.0375L195.131 32.0332L194.328 31.4375ZM202.203 24.7812L202.664 25.6686L202.671 25.665L202.203 24.7812ZM222.125 22.8594L221.976 23.8482L221.987 23.8498L222.125 22.8594ZM229.719 24.3594H230.719V23.5885L229.973 23.3923L229.719 24.3594ZM230.562 61.0625L229.572 61.2007L229.572 61.2018L230.562 61.0625ZM232.766 71V72H234.169L233.711 70.6737L232.766 71ZM221.047 30.5938L221.289 29.6236C220.896 29.5252 220.458 29.4281 219.977 29.3319L219.781 30.3125L219.585 31.2931C220.042 31.3844 220.448 31.4748 220.804 31.5639L221.047 30.5938ZM219.781 30.3125L219.977 29.3319C219.485 29.2335 218.903 29.1367 218.235 29.0413L218.094 30.0312L217.952 31.0212C218.597 31.1133 219.14 31.204 219.585 31.2931L219.781 30.3125ZM218.094 30.0312L218.242 29.0423C217.569 28.9413 216.779 28.8765 215.879 28.8444L215.844 29.8438L215.808 30.8431C216.659 30.8735 217.369 30.9337 217.945 31.0202L218.094 30.0312ZM215.844 29.8438L215.918 28.8465C215.042 28.7816 214.016 28.75 212.844 28.75V29.75V30.75C213.984 30.75 214.958 30.7809 215.77 30.841L215.844 29.8438ZM212.844 29.75V28.75C209.647 28.75 206.894 29.4027 204.638 30.7698L205.156 31.625L205.675 32.4802C207.544 31.3473 209.915 30.75 212.844 30.75V29.75ZM205.156 31.625L204.642 30.7675C202.466 32.0729 200.723 33.8341 199.42 36.0381L200.281 36.5469L201.142 37.0556C202.277 35.1347 203.784 33.6146 205.671 32.4825L205.156 31.625ZM200.281 36.5469L199.424 36.0324C198.138 38.1749 197.226 40.6293 196.676 43.382L197.656 43.5781L198.637 43.7742C199.149 41.2145 199.987 38.9813 201.139 37.0614L200.281 36.5469ZM197.656 43.5781L196.674 43.3931C196.162 46.1128 195.906 48.9092 195.906 51.7812H196.906H197.906C197.906 49.0283 198.151 46.356 198.639 43.7631L197.656 43.5781ZM196.906 51.7812H195.906C195.906 53.6564 196.084 55.4027 196.446 57.0159L197.422 56.7969L198.398 56.5778C198.072 55.1285 197.906 53.5311 197.906 51.7812H196.906ZM197.422 56.7969L196.452 57.0394C196.844 58.6078 197.373 60.005 198.048 61.22L198.922 60.7344L199.796 60.2487C199.221 59.2137 198.75 57.9859 198.392 56.5543L197.422 56.7969ZM198.922 60.7344L198.054 61.2305C198.73 62.4137 199.53 63.3832 200.468 64.1051L201.078 63.3125L201.688 62.5199C201.001 61.9918 200.364 61.2426 199.79 60.2382L198.922 60.7344ZM201.078 63.3125L200.488 64.1199C201.459 64.8291 202.538 65.2031 203.703 65.2031V64.2031V63.2031C202.994 63.2031 202.323 62.9834 201.668 62.5051L201.078 63.3125ZM203.703 64.2031V65.2031C205.352 65.2031 206.936 64.5622 208.44 63.4007L207.828 62.6094L207.217 61.8181C205.97 62.7815 204.804 63.2031 203.703 63.2031V64.2031ZM207.828 62.6094L208.431 63.4072C209.92 62.2824 211.325 60.8567 212.65 59.1431L211.859 58.5312L211.068 57.9194C209.832 59.5183 208.549 60.8113 207.225 61.8115L207.828 62.6094ZM211.859 58.5312L212.656 59.136C213.97 57.4046 215.2 55.4869 216.347 53.3851L215.469 52.9062L214.591 52.4274C213.487 54.4506 212.311 56.2829 211.063 57.9265L211.859 58.5312ZM215.469 52.9062L216.35 53.3796C217.491 51.2556 218.476 49.1591 219.303 47.0901L218.375 46.7188L217.447 46.3474C216.649 48.3409 215.697 50.3694 214.588 52.4329L215.469 52.9062ZM218.375 46.7188L219.301 47.0974C220.158 45.0007 220.83 43.0201 221.312 41.1566L220.344 40.9062L219.376 40.6559C218.92 42.4174 218.279 44.3118 217.449 46.3401L218.375 46.7188ZM220.344 40.9062L221.312 41.1566C221.789 39.3115 222.047 37.7641 222.047 36.5469H221.047H220.047C220.047 37.5172 219.836 38.876 219.376 40.6559L220.344 40.9062ZM221.047 36.5469H222.047V30.5938H221.047H220.047V36.5469H221.047ZM224.562 71L225.472 70.5833C225.171 69.9278 224.877 68.9763 224.603 67.6967L223.625 67.9062L222.647 68.1158C222.935 69.4612 223.266 70.5722 223.653 71.4167L224.562 71ZM223.625 67.9062L224.607 67.7191C224.362 66.4287 224.146 65.0584 223.961 63.6077L222.969 63.7344L221.977 63.861C222.167 65.3479 222.388 66.7588 222.643 68.0934L223.625 67.9062ZM222.969 63.7344L223.963 63.6308C223.808 62.1437 223.685 60.6727 223.592 59.2175L222.594 59.2812L221.596 59.345C221.69 60.8273 221.817 62.325 221.974 63.838L222.969 63.7344ZM222.594 59.2812L223.592 59.2175C223.499 57.7619 223.453 56.5344 223.453 55.5312H222.453H221.453C221.453 56.5906 221.501 57.8631 221.596 59.345L222.594 59.2812ZM222.453 55.5312H223.453V51.7812H222.453H221.453V55.5312H222.453ZM222.453 51.7812L221.52 51.4223C220.598 53.818 219.491 56.2172 218.198 58.6197L219.078 59.0938L219.959 59.5678C221.29 57.0953 222.433 54.6195 223.386 52.1402L222.453 51.7812ZM219.078 59.0938L218.195 58.6238C216.948 60.9671 215.506 63.0756 213.871 64.9526L214.625 65.6094L215.379 66.2662C217.119 64.2681 218.646 62.0329 219.961 59.5637L219.078 59.0938ZM214.625 65.6094L213.865 64.9596C212.276 66.8187 210.5 68.3236 208.538 69.4828L209.047 70.3438L209.556 71.2047C211.719 69.9264 213.662 68.275 215.385 66.2592L214.625 65.6094ZM209.047 70.3438L208.538 69.4828C206.633 70.6089 204.559 71.1719 202.297 71.1719V72.1719V73.1719C204.91 73.1719 207.336 72.5161 209.556 71.2047L209.047 70.3438ZM202.297 72.1719V71.1719C200.482 71.1719 198.795 70.7701 197.219 69.9682L196.766 70.8594L196.312 71.7505C198.174 72.6986 200.174 73.1719 202.297 73.1719V72.1719ZM196.766 70.8594L197.219 69.9682C195.652 69.1704 194.267 67.9805 193.067 66.3711L192.266 66.9688L191.464 67.5664C192.827 69.3945 194.441 70.7983 196.312 71.7505L196.766 70.8594ZM192.266 66.9688L193.074 66.3806C191.908 64.7766 190.968 62.7646 190.274 60.3206L189.312 60.5938L188.351 60.8669C189.094 63.4854 190.123 65.7234 191.457 67.5569L192.266 66.9688ZM189.312 60.5938L190.275 60.3237C189.586 57.8675 189.234 55.0237 189.234 51.7812H188.234H187.234C187.234 55.1638 187.601 58.195 188.35 60.8638L189.312 60.5938ZM188.234 51.7812H189.234C189.234 48.1534 189.722 44.6201 190.697 41.1787L189.734 40.9062L188.772 40.6338C187.747 44.2549 187.234 47.9716 187.234 51.7812H188.234ZM189.734 40.9062L190.697 41.1765C191.666 37.7239 193.145 34.6813 195.128 32.0375L194.328 31.4375L193.528 30.8375C191.386 33.6937 189.802 36.9636 188.772 40.636L189.734 40.9062ZM194.328 31.4375L195.131 32.0332C197.1 29.3785 199.606 27.2576 202.664 25.6686L202.203 24.7812L201.742 23.8939C198.425 25.6174 195.681 27.934 193.525 30.8418L194.328 31.4375ZM202.203 24.7812L202.671 25.665C205.687 24.0685 209.301 23.25 213.547 23.25V22.25V21.25C209.043 21.25 205.095 22.119 201.735 23.8975L202.203 24.7812ZM213.547 22.25V23.25C216.534 23.25 219.343 23.4502 221.976 23.8481L222.125 22.8594L222.274 21.8706C219.532 21.4561 216.623 21.25 213.547 21.25V22.25ZM222.125 22.8594L221.987 23.8498C224.639 24.2199 227.131 24.7125 229.464 25.3264L229.719 24.3594L229.973 23.3923C227.556 22.7562 224.986 22.2489 222.263 21.869L222.125 22.8594ZM229.719 24.3594H228.719V46.1562H229.719H230.719V24.3594H229.719ZM229.719 46.1562H228.719C228.719 52.0901 229.001 57.1083 229.572 61.2007L230.562 61.0625L231.553 60.9243C230.999 56.9542 230.719 52.0349 230.719 46.1562H229.719ZM230.562 61.0625L229.572 61.2018C230.14 65.2395 230.886 68.62 231.82 71.3263L232.766 71L233.711 70.6737C232.833 68.13 232.11 64.8855 231.553 60.9232L230.562 61.0625ZM232.766 71V70H224.562V71V72H232.766V71ZM281.266 71V72H282.266V71H281.266ZM272.594 71H271.594V72H272.594V71ZM272.266 37.25L271.273 37.3698L271.273 37.3719L272.266 37.25ZM271.141 33.0312L270.241 33.4675L270.249 33.4841L270.258 33.5004L271.141 33.0312ZM259 33.1719L259.633 33.9458L259.636 33.9438L259 33.1719ZM256.094 36.2188L255.299 35.6121L255.296 35.6153L256.094 36.2188ZM253.844 40.0625L252.93 39.6564L252.844 39.8503V40.0625H253.844ZM253.844 71V72H254.844V71H253.844ZM245.172 71H244.172V72H245.172V71ZM244.375 30.4531L243.388 30.616L243.389 30.6175L244.375 30.4531ZM242.828 23.1875V22.1875H241.474L241.872 23.4816L242.828 23.1875ZM251.266 23.1875L252.211 22.8624L251.979 22.1875H251.266V23.1875ZM252.156 26.75L251.172 26.9289L251.173 26.9329L252.156 26.75ZM252.766 30.4531L251.775 30.5907L252.078 32.7711L253.521 31.1086L252.766 30.4531ZM260.781 23.8906L261.202 24.798L261.211 24.7935L260.781 23.8906ZM264.672 22.625L264.84 23.6107L264.852 23.6088L264.863 23.6065L264.672 22.625ZM276.062 24.6406L275.454 25.4342L275.46 25.439L275.467 25.4437L276.062 24.6406ZM278.547 27.1719L277.731 27.7506L277.736 27.757L277.74 27.7632L278.547 27.1719ZM280.141 30.125L279.201 30.4667L279.762 32.011L280.876 30.8027L280.141 30.125ZM284.406 26.2344L284.994 27.0431L285 27.0388L285.006 27.0344L284.406 26.2344ZM288.438 23.8438L288.831 24.7629L288.841 24.759L288.85 24.7549L288.438 23.8438ZM292.281 22.625L292.454 23.61L292.463 23.6084L292.473 23.6065L292.281 22.625ZM302.031 23.4219L301.598 24.3231L301.605 24.3265L301.612 24.3298L302.031 23.4219ZM305.922 26.7969L305.082 27.3394L305.086 27.3455L305.09 27.3516L305.922 26.7969ZM308.031 32.375L307.048 32.5551L307.05 32.5685L308.031 32.375ZM308.688 71V72H309.688V71H308.688ZM300.016 71H299.016V72H300.016V71ZM298.562 33.3125L297.653 33.7283L297.658 33.7389L297.663 33.7494L298.562 33.3125ZM289.797 31.1562L290.159 32.0883L290.17 32.0839L290.181 32.0793L289.797 31.1562ZM286.516 33.0781L287.135 33.8636L287.138 33.8612L286.516 33.0781ZM283.609 36.0781L282.814 35.4715L282.809 35.4781L282.804 35.4849L283.609 36.0781ZM281.266 40.0625L280.36 39.6386L280.266 39.84V40.0625H281.266ZM281.266 71V70H272.594V71V72H281.266V71ZM272.594 71H273.594V44.2812H272.594H271.594V71H272.594ZM272.594 44.2812H273.594C273.594 41.3559 273.484 38.9667 273.258 37.1281L272.266 37.25L271.273 37.3719C271.485 39.0958 271.594 41.3941 271.594 44.2812H272.594ZM272.266 37.25L273.258 37.1302C273.033 35.2611 272.637 33.7169 272.024 32.5621L271.141 33.0312L270.258 33.5004C270.707 34.3456 271.061 35.6139 271.273 37.3698L272.266 37.25ZM271.141 33.0312L272.04 32.595C271.456 31.3898 270.601 30.4928 269.444 30.038L269.078 30.9688L268.712 31.8995C269.305 32.1322 269.825 32.6102 270.241 33.4675L271.141 33.0312ZM269.078 30.9688L269.444 30.038C268.416 29.6342 267.189 29.4531 265.797 29.4531V30.4531V31.4531C267.03 31.4531 267.99 31.6158 268.712 31.8995L269.078 30.9688ZM265.797 30.4531V29.4531C264.502 29.4531 263.219 29.7162 261.952 30.2295L262.328 31.1562L262.704 32.083C263.75 31.6588 264.779 31.4531 265.797 31.4531V30.4531ZM262.328 31.1562L261.952 30.2295C260.693 30.7401 259.497 31.4671 258.364 32.3999L259 33.1719L259.636 33.9438C260.628 33.1267 261.651 32.5099 262.704 32.083L262.328 31.1562ZM259 33.1719L258.367 32.3979C257.269 33.2965 256.247 34.3701 255.299 35.6121L256.094 36.2188L256.889 36.8254C257.753 35.6924 258.669 34.7348 259.633 33.9458L259 33.1719ZM256.094 36.2188L255.296 35.6153C254.372 36.8363 253.584 38.1844 252.93 39.6564L253.844 40.0625L254.758 40.4686C255.353 39.1281 256.065 37.9137 256.891 36.8222L256.094 36.2188ZM253.844 40.0625H252.844V71H253.844H254.844V40.0625H253.844ZM253.844 71V70H245.172V71V72H253.844V71ZM245.172 71H246.172V42.1719H245.172H244.172V71H245.172ZM245.172 42.1719H246.172C246.172 37.5132 245.905 33.5482 245.361 30.2887L244.375 30.4531L243.389 30.6175C243.908 33.733 244.172 37.5806 244.172 42.1719H245.172ZM244.375 30.4531L245.362 30.2903C244.828 27.0596 244.304 24.5843 243.784 22.8934L242.828 23.1875L241.872 23.4816C242.352 25.0407 242.859 27.4092 243.388 30.616L244.375 30.4531ZM242.828 23.1875V24.1875H251.266V23.1875V22.1875H242.828V23.1875ZM251.266 23.1875L250.32 23.5126C250.643 24.4525 250.929 25.5887 251.172 26.9289L252.156 26.75L253.14 26.5711C252.884 25.1613 252.576 23.9225 252.211 22.8624L251.266 23.1875ZM252.156 26.75L251.173 26.9329C251.421 28.2645 251.621 29.4835 251.775 30.5907L252.766 30.4531L253.756 30.3156C253.597 29.1727 253.392 27.923 253.139 26.5671L252.156 26.75ZM252.766 30.4531L253.521 31.1086C254.931 29.4842 256.264 28.1689 257.52 27.1522L256.891 26.375L256.261 25.5978C254.892 26.7061 253.476 28.1095 252.01 29.7977L252.766 30.4531ZM256.891 26.375L257.52 27.1522C258.78 26.1318 260.008 25.3511 261.202 24.7979L260.781 23.8906L260.361 22.9833C258.992 23.6176 257.626 24.4932 256.261 25.5978L256.891 26.375ZM260.781 23.8906L261.211 24.7935C262.45 24.2034 263.66 23.8123 264.84 23.6107L264.672 22.625L264.504 21.6393C263.122 21.8752 261.737 22.3279 260.351 22.9878L260.781 23.8906ZM264.672 22.625L264.863 23.6065C266.08 23.3692 267.328 23.25 268.609 23.25V22.25V21.25C267.203 21.25 265.827 21.3808 264.48 21.6435L264.672 22.625ZM268.609 22.25V23.25C270.045 23.25 271.322 23.4551 272.451 23.8501L272.781 22.9062L273.112 21.9624C271.74 21.4824 270.236 21.25 268.609 21.25V22.25ZM272.781 22.9062L272.451 23.8501C273.613 24.2568 274.61 24.7873 275.454 25.4342L276.062 24.6406L276.671 23.847C275.64 23.0565 274.45 22.4307 273.112 21.9624L272.781 22.9062ZM276.062 24.6406L275.467 25.4437C276.352 26.1007 277.106 26.8691 277.731 27.7506L278.547 27.1719L279.362 26.5931C278.613 25.5372 277.71 24.618 276.658 23.8375L276.062 24.6406ZM278.547 27.1719L277.74 27.7632C278.375 28.6288 278.86 29.5298 279.201 30.4667L280.141 30.125L281.08 29.7833C280.671 28.6577 280.094 27.5899 279.353 26.5805L278.547 27.1719ZM280.141 30.125L280.876 30.8027C282.312 29.2449 283.685 27.9955 284.994 27.0431L284.406 26.2344L283.818 25.4256C282.378 26.4732 280.907 27.8176 279.405 29.4473L280.141 30.125ZM284.406 26.2344L285.006 27.0344C286.33 26.0416 287.605 25.2884 288.831 24.7629L288.438 23.8438L288.044 22.9246C286.645 23.5241 285.233 24.3647 283.806 25.4344L284.406 26.2344ZM288.438 23.8438L288.85 24.7549C290.096 24.1911 291.297 23.8125 292.454 23.61L292.281 22.625L292.109 21.64C290.766 21.875 289.404 22.3089 288.025 22.9326L288.438 23.8438ZM292.281 22.625L292.473 23.6065C293.695 23.3679 294.881 23.25 296.031 23.25V22.25V21.25C294.744 21.25 293.43 21.3821 292.09 21.6435L292.281 22.625ZM296.031 22.25V23.25C298.302 23.25 300.144 23.6241 301.598 24.3231L302.031 23.4219L302.465 22.5206C300.669 21.6572 298.511 21.25 296.031 21.25V22.25ZM302.031 23.4219L301.612 24.3298C303.065 25.0006 304.216 25.999 305.082 27.3394L305.922 26.7969L306.762 26.2543C305.69 24.5947 304.247 23.3432 302.45 22.5139L302.031 23.4219ZM305.922 26.7969L305.09 27.3516C305.998 28.7137 306.66 30.4377 307.048 32.5551L308.031 32.375L309.015 32.1949C308.59 29.8748 307.846 27.88 306.754 26.2422L305.922 26.7969ZM308.031 32.375L307.05 32.5685C307.472 34.7085 307.688 37.2039 307.688 40.0625H308.688H309.688C309.688 37.1086 309.465 34.479 309.012 32.1815L308.031 32.375ZM308.688 40.0625H307.688V71H308.688H309.688V40.0625H308.688ZM308.688 71V70H300.016V71V72H308.688V71ZM300.016 71H301.016V45.2188H300.016H299.016V71H300.016ZM300.016 45.2188H301.016C301.016 42.1685 300.906 39.6577 300.681 37.6985L299.688 37.8125L298.694 37.9265C298.907 39.7798 299.016 42.2065 299.016 45.2188H300.016ZM299.688 37.8125L300.681 37.6985C300.456 35.7372 300.063 34.1122 299.462 32.8756L298.562 33.3125L297.663 33.7494C298.125 34.7003 298.482 36.0753 298.694 37.9265L299.688 37.8125ZM298.562 33.3125L299.472 32.8967C298.898 31.6415 298.062 30.685 296.921 30.1555L296.5 31.0625L296.079 31.9695C296.688 32.2525 297.227 32.796 297.653 33.7283L298.562 33.3125ZM296.5 31.0625L296.921 30.1555C295.876 29.6701 294.627 29.4531 293.219 29.4531V30.4531V31.4531C294.435 31.4531 295.374 31.6424 296.079 31.9695L296.5 31.0625ZM293.219 30.4531V29.4531C291.923 29.4531 290.652 29.7164 289.412 30.2332L289.797 31.1562L290.181 32.0793C291.191 31.6586 292.202 31.4531 293.219 31.4531V30.4531ZM289.797 31.1562L289.434 30.2242C288.205 30.7023 287.025 31.3965 285.894 32.295L286.516 33.0781L287.138 33.8612C288.131 33.0722 289.139 32.4852 290.159 32.0883L289.797 31.1562ZM286.516 33.0781L285.897 32.2926C284.791 33.1637 283.765 34.2262 282.814 35.4715L283.609 36.0781L284.404 36.6848C285.266 35.5551 286.178 34.6176 287.134 33.8636L286.516 33.0781ZM283.609 36.0781L282.804 35.4849C281.887 36.7303 281.073 38.116 280.36 39.6386L281.266 40.0625L282.171 40.4864C282.834 39.0715 283.582 37.8009 284.414 36.6713L283.609 36.0781ZM281.266 40.0625H280.266V71H281.266H282.266V40.0625H281.266ZM323.438 5.51562L324.374 5.86678L324.378 5.85434L323.438 5.51562ZM324.609 3.5L323.864 2.8332L323.862 2.83564L324.609 3.5ZM326.484 2.14062L326.883 3.0577L326.9 3.05052L326.916 3.04276L326.484 2.14062ZM331.312 2.14062L330.896 3.04969L330.912 3.05698L330.928 3.0637L331.312 2.14062ZM333.234 3.5L332.489 4.16679L332.498 4.17683L332.507 4.18662L333.234 3.5ZM334.5 5.51562L333.572 5.88702L333.574 5.89365L333.577 5.90024L334.5 5.51562ZM334.5 10.4375L335.423 10.8221L335.426 10.8155L335.428 10.8089L334.5 10.4375ZM333.234 12.4531L333.961 13.1397L333.971 13.13L333.98 13.1199L333.234 12.4531ZM331.312 13.8125L331.697 14.7356L331.713 14.7289L331.729 14.7216L331.312 13.8125ZM326.484 13.8125L326.053 14.7146L326.069 14.7224L326.086 14.7296L326.484 13.8125ZM324.609 12.4531L323.844 13.0973L323.863 13.119L323.882 13.1397L324.609 12.4531ZM323.438 10.4375L322.497 10.7762L322.501 10.7886L323.438 10.4375ZM333.375 54.0781L332.375 54.0933L332.375 54.1011L332.375 54.1089L333.375 54.0781ZM333.562 60.2656L332.563 60.2955L332.563 60.3029L332.564 60.3104L333.562 60.2656ZM333.844 66.2656L332.845 66.3147L332.845 66.3229L332.846 66.3311L333.844 66.2656ZM334.266 71V72H335.398L335.258 70.876L334.266 71ZM324.656 71H323.656V72H324.656V71ZM324.609 39.4062L323.609 39.4063L323.609 39.4203L324.609 39.4062ZM324.516 33.125L323.516 33.1406L323.516 33.1487L323.516 33.1567L324.516 33.125ZM324.328 27.5938L323.33 27.6482L323.33 27.6492L324.328 27.5938ZM323.953 23.1875V22.1875H322.817L322.961 23.3147L323.953 23.1875ZM333.328 23.1875H334.328V22.1875H333.328V23.1875ZM323.016 7.95312H324.016C324.016 7.18695 324.138 6.49454 324.374 5.86675L323.438 5.51562L322.501 5.1645C322.174 6.03671 322.016 6.9693 322.016 7.95312H323.016ZM323.438 5.51562L324.378 5.85434C324.621 5.18058 324.95 4.62226 325.357 4.16436L324.609 3.5L323.862 2.83564C323.269 3.50274 322.817 4.28817 322.497 5.17691L323.438 5.51562ZM324.609 3.5L325.355 4.16679C325.791 3.67864 326.299 3.31175 326.883 3.0577L326.484 2.14062L326.086 1.22355C325.232 1.5945 324.49 2.13386 323.864 2.83321L324.609 3.5ZM326.484 2.14062L326.916 3.04276C327.487 2.76955 328.134 2.625 328.875 2.625V1.625V0.625C327.866 0.625 326.919 0.824197 326.053 1.23849L326.484 2.14062ZM328.875 1.625V2.625C329.615 2.625 330.284 2.76945 330.896 3.04969L331.312 2.14062L331.729 1.23156C330.841 0.824297 329.885 0.625 328.875 0.625V1.625ZM331.312 2.14062L330.928 3.0637C331.543 3.31995 332.059 3.68658 332.489 4.16679L333.234 3.5L333.98 2.83321C333.347 2.12592 332.582 1.5863 331.697 1.21755L331.312 2.14062ZM333.234 3.5L332.507 4.18662C332.945 4.64994 333.302 5.21231 333.572 5.88702L334.5 5.51562L335.428 5.14423C335.073 4.25644 334.586 3.47506 333.961 2.81338L333.234 3.5ZM334.5 5.51562L333.577 5.90024C333.835 6.51925 333.969 7.19989 333.969 7.95312H334.969H335.969C335.969 6.95636 335.79 6.012 335.423 5.13101L334.5 5.51562ZM334.969 7.95312H333.969C333.969 8.70607 333.835 9.40768 333.572 10.0661L334.5 10.4375L335.428 10.8089C335.79 9.90482 335.969 8.95018 335.969 7.95312H334.969ZM334.5 10.4375L333.577 10.0529C333.307 10.7016 332.944 11.2777 332.489 11.7863L333.234 12.4531L333.98 13.1199C334.587 12.4411 335.068 11.6734 335.423 10.8221L334.5 10.4375ZM333.234 12.4531L332.507 11.7665C332.07 12.2295 331.537 12.6096 330.896 12.9034L331.312 13.8125L331.729 14.7216C332.588 14.3279 333.336 13.8017 333.961 13.1397L333.234 12.4531ZM331.312 13.8125L330.928 12.8894C330.309 13.1473 329.628 13.2812 328.875 13.2812V14.2812V15.2812C329.872 15.2812 330.816 15.1027 331.697 14.7356L331.312 13.8125ZM328.875 14.2812V13.2812C328.121 13.2812 327.462 13.1472 326.883 12.8954L326.484 13.8125L326.086 14.7296C326.944 15.1028 327.879 15.2812 328.875 15.2812V14.2812ZM326.484 13.8125L326.916 12.9104C326.305 12.6181 325.781 12.2369 325.336 11.7665L324.609 12.4531L323.882 13.1397C324.501 13.7943 325.227 14.3194 326.053 14.7146L326.484 13.8125ZM324.609 12.4531L325.374 11.809C324.95 11.3052 324.616 10.7331 324.374 10.0864L323.438 10.4375L322.501 10.7886C322.821 11.6419 323.269 12.4135 323.844 13.0973L324.609 12.4531ZM323.438 10.4375L324.378 10.0988C324.138 9.43192 324.016 8.71892 324.016 7.95312H323.016H322.016C322.016 8.93733 322.174 9.88058 322.497 10.7762L323.438 10.4375ZM333.328 48.7344H332.328C332.328 50.2409 332.344 52.0274 332.375 54.0933L333.375 54.0781L334.375 54.063C334.344 52.0038 334.328 50.2279 334.328 48.7344H333.328ZM333.375 54.0781L332.375 54.1089C332.438 56.1398 332.5 58.202 332.563 60.2955L333.562 60.2656L334.562 60.2358C334.5 58.1417 334.437 56.0789 334.375 54.0474L333.375 54.0781ZM333.562 60.2656L332.564 60.3104C332.657 62.4054 332.751 64.4069 332.845 66.3147L333.844 66.2656L334.843 66.2165C334.749 64.3119 334.655 62.3133 334.561 60.2209L333.562 60.2656ZM333.844 66.2656L332.846 66.3311C332.972 68.248 333.114 69.8474 333.273 71.124L334.266 71L335.258 70.876C335.105 69.6526 334.966 68.0957 334.842 66.2002L333.844 66.2656ZM334.266 71V70H324.656V71V72H334.266V71ZM324.656 71H325.656V46.1562H324.656H323.656V71H324.656ZM324.656 46.1562H325.656C325.656 43.8704 325.641 41.6157 325.609 39.3922L324.609 39.4062L323.609 39.4203C323.641 41.6343 323.656 43.8796 323.656 46.1562H324.656ZM324.609 39.4062H325.609C325.609 37.1782 325.578 35.0738 325.515 33.0933L324.516 33.125L323.516 33.1567C323.578 35.1137 323.609 37.1968 323.609 39.4062H324.609ZM324.516 33.125L325.516 33.1094C325.484 31.0984 325.421 29.2412 325.327 27.5383L324.328 27.5938L323.33 27.6492C323.423 29.3213 323.485 31.1516 323.516 33.1406L324.516 33.125ZM324.328 27.5938L325.327 27.5393C325.232 25.805 325.105 24.3106 324.945 23.0603L323.953 23.1875L322.961 23.3147C323.113 24.5019 323.237 25.945 323.33 27.6482L324.328 27.5938ZM323.953 23.1875V24.1875H333.328V23.1875V22.1875H323.953V23.1875ZM333.328 23.1875H332.328V48.7344H333.328H334.328V23.1875H333.328Z" fill="white" />
</svg>
